<svg xmlns="http://www.w3.org/2000/svg" version="1.1" xmlns:xlink="http://www.w3.org/1999/xlink" xmlns:svgjs="http://svgjs.dev/svgjs" width="32" height="32"><svg version="1.1" id="SvgjsSvg1001" xmlns="http://www.w3.org/2000/svg" xmlns:xlink="http://www.w3.org/1999/xlink" x="0px" y="0px" viewBox="0 0 32 32" style="enable-background:new 0 0 32 32;" xml:space="preserve">
<style type="text/css">
	.st0{fill:#FEFEFE;}
	.st1{fill:#020203;}
	.st2{fill:#FFFFFF;}
</style>
<g>
	<path class="st0" d="M0,16C0,10.72,0,5.43,0,0.15C0,0.03,0.03,0,0.15,0c10.57,0,21.14,0,31.71,0C31.97,0,32,0.03,32,0.15
		c0,10.57,0,21.14,0,31.71c0,0.12-0.03,0.15-0.15,0.15c-10.57,0-21.14,0-31.71,0C0.03,32,0,31.97,0,31.85C0,26.57,0,21.28,0,16z"></path>
	<path class="st1" d="M14.7,23.97c-1.24,0-2.47,0-3.71,0c-0.16,0-0.22-0.04-0.21-0.2c0.01-0.27,0.02-0.29,0.29-0.31
		c0.55-0.04,1.1-0.04,1.63-0.19c0.24-0.07,0.46-0.15,0.66-0.3c0.34-0.26,0.45-0.63,0.31-1.03c-0.6-1.7-1.2-3.41-1.81-5.11
		c-0.01-0.03-0.02-0.06-0.03-0.09c-0.23-0.57-0.37-0.54-0.79-0.54c-1.38,0-2.75,0.01-4.13,0c-0.42,0-0.64,0.26-0.73,0.53
		c-0.61,1.77-1.21,3.55-1.82,5.32c-0.11,0.31-0.03,0.56,0.2,0.76c0.43,0.38,0.95,0.55,1.51,0.63c0.29,0.04,0.58,0.05,0.88,0.04
		c0.14,0,0.19,0.05,0.18,0.19c-0.01,0.37,0,0.31-0.31,0.31c-2.03,0-4.05,0-6.08,0c-0.21,0-0.21,0-0.21-0.21c0-0.01,0-0.01,0-0.02
		c0-0.26,0.01-0.26,0.26-0.28c0.32-0.02,0.62-0.09,0.91-0.23c0.62-0.29,1.01-0.79,1.23-1.42c0.47-1.32,0.92-2.64,1.38-3.96
		c1.12-3.25,2.25-6.5,3.37-9.74C7.81,7.79,7.9,7.47,8.03,7.16c0.09-0.22,0.11-0.42,0.01-0.64C7.96,6.36,7.98,6.34,8.16,6.34
		c0.75,0,1.5,0,2.26,0c0.17,0,0.25,0.06,0.31,0.22c1.07,3.02,2.15,6.04,3.22,9.06c0.66,1.85,1.32,3.7,1.98,5.55
		c0.12,0.34,0.29,0.67,0.44,1c0.28,0.64,0.84,0.92,1.44,1.15c0.2,0.08,0.41,0.14,0.63,0.14c0.13,0,0.19,0.05,0.18,0.19
		c-0.01,0.38,0.03,0.31-0.32,0.31C17.11,23.97,15.9,23.97,14.7,23.97z"></path>
	<path class="st1" d="M24.87,24.28c-1.07,0.06-2.08-0.18-3.05-0.6c-0.42-0.18-0.84-0.22-1.28-0.09c-0.25,0.08-0.32,0.03-0.35-0.23
		c-0.07-0.51-0.13-1.01-0.18-1.52c-0.06-0.56-0.12-1.11-0.18-1.67c-0.01-0.07-0.01-0.15,0-0.22c0.02-0.21,0.17-0.28,0.35-0.15
		c0.12,0.08,0.2,0.21,0.26,0.34c0.15,0.29,0.21,0.61,0.37,0.9c0.64,1.2,1.57,2.06,2.92,2.37c0.94,0.22,1.88,0.25,2.79-0.15
		c0.93-0.4,1.61-1.06,1.82-2.08c0.18-0.84,0.04-1.64-0.35-2.39c-0.42-0.81-1.03-1.45-1.73-2c-0.85-0.67-1.78-1.25-2.67-1.87
		c-0.74-0.51-1.44-1.07-2.04-1.73c-0.62-0.69-1.09-1.47-1.26-2.39c-0.29-1.56,0.09-2.92,1.5-3.96c1.09-0.8,2.31-1.1,3.65-0.97
		c0.85,0.08,1.66,0.35,2.48,0.56c0.17,0.04,0.34,0.1,0.5,0.14c0.23,0.06,0.45-0.02,0.68-0.04c0.21-0.02,0.26,0,0.28,0.21
		c0.11,0.96,0.22,1.91,0.35,2.87c0.01,0.07,0.08,0.17-0.05,0.22c-0.14,0.06-0.36,0.01-0.41-0.11c-0.1-0.2-0.19-0.41-0.29-0.62
		c-0.68-1.31-1.74-2.15-3.19-2.44c-1.25-0.25-2.34,0.11-3.21,1.05c-0.31,0.33-0.43,0.74-0.43,1.2c0,1.01,0.41,1.84,1.06,2.58
		c0.65,0.74,1.45,1.3,2.24,1.86c0.99,0.71,2,1.39,2.9,2.22c0.83,0.77,1.48,1.67,1.82,2.76c0.33,1.05,0.33,2.08-0.11,3.1
		c-0.36,0.83-0.97,1.44-1.72,1.92c-0.84,0.54-1.76,0.84-2.75,0.93C25.34,24.3,25.11,24.28,24.87,24.28z"></path>
	<path class="st2" d="M8.99,14.79c-0.6,0-1.19,0-1.79,0c-0.23,0-0.29-0.07-0.22-0.3c0.11-0.36,0.24-0.71,0.36-1.07
		c0.47-1.37,0.93-2.73,1.41-4.1C8.78,9.2,8.84,9.1,8.9,8.99c0.04-0.08,0.09-0.07,0.13,0C9.08,9.1,9.13,9.22,9.18,9.34
		c0.61,1.67,1.21,3.33,1.81,5c0,0.01,0.01,0.02,0.01,0.03c0.09,0.3,0.09,0.43-0.3,0.42C10.13,14.78,9.56,14.79,8.99,14.79z"></path>
</g>
</svg><style>@media (prefers-color-scheme: light) { :root { filter: none; } }
@media (prefers-color-scheme: dark) { :root { filter: none; } }
</style></svg>